# Blender v2.79 (sub 0) OBJ File: ''
# www.blender.org
mtllib wall.mtl
o Plane
v -7.999998 0.000000 -0.000000
v 7.999998 0.000000 -0.000000
v -7.999998 2.000000 0.000000
v 7.999998 2.000000 0.000000
v -7.999998 0.000000 0.100000
v 7.999998 0.000000 0.100000
v -7.999998 2.000000 0.100000
v 7.999998 2.000000 0.100000
vn 0.0000 0.0000 -1.0000
vn 0.0000 -0.0000 1.0000
vn 0.0000 -1.0000 -0.0000
vn 1.0000 -0.0000 0.0000
vn 0.0000 1.0000 0.0000
vn -1.0000 -0.0000 0.0000
usemtl None
s off
f 1//1 3//1 4//1 2//1
f 5//2 6//2 8//2 7//2
f 1//3 2//3 6//3 5//3
f 2//4 4//4 8//4 6//4
f 4//5 3//5 7//5 8//5
f 3//6 1//6 5//6 7//6
